<svg id="visual" viewBox="0 0 1920 1080" width="1920" height="1080" xmlns="http://www.w3.org/2000/svg" xmlns:xlink="http://www.w3.org/1999/xlink" version="1.1"><rect x="0" y="0" width="1920" height="1080" fill="#222222"></rect><defs><linearGradient id="grad1_0" x1="43.8%" y1="0%" x2="100%" y2="100%"><stop offset="14.444444444444446%" stop-color="#222222" stop-opacity="1"></stop><stop offset="85.55555555555554%" stop-color="#222222" stop-opacity="1"></stop></linearGradient></defs><defs><linearGradient id="grad2_0" x1="0%" y1="0%" x2="56.3%" y2="100%"><stop offset="14.444444444444446%" stop-color="#222222" stop-opacity="1"></stop><stop offset="85.55555555555554%" stop-color="#222222" stop-opacity="1"></stop></linearGradient></defs><g transform="translate(1920, 0)"><path d="M0 648C-56.6 596.5 -113.3 545 -167.2 514.5C-221.1 484.1 -272.3 474.6 -332.7 457.9C-393.1 441.2 -462.7 417.1 -513.7 373.2C-564.7 329.4 -597 265.7 -616.3 200.2C-635.6 134.7 -641.8 67.4 -648 0L0 0Z" fill="#FBAE3C"></path></g><g transform="translate(0, 1080)"><path d="M0 -648C64 -620.8 128 -593.6 182.6 -562.1C237.3 -530.5 282.5 -494.6 338 -465.2C393.4 -435.8 459.1 -412.9 509.7 -370.3C560.3 -327.7 595.7 -265.3 616.3 -200.2C636.8 -135.2 642.4 -67.6 648 0L0 0Z" fill="#FBAE3C"></path></g></svg>